<?xml version="1.0" encoding="UTF-8"?>
<svg width="1em" height="1em" version="1.1" viewBox="0 0 24 24" xmlns="http://www.w3.org/2000/svg">
 <g transform="translate(-.010788 .14468)" fill="currentColor">
  <path d="m20.041 5.168c0.91032-0.94253-0.47147-2.3243-1.414-1.414l-1.797 1.797c-1.6781-1.0432-3.8536-0.79294-5.251 0.604l-1.068 1.069c-0.68284 0.68332-0.68284 1.7907 0 2.474l3.585 3.586c0.68343 0.6835 1.7916 0.6835 2.475 0l1.068-1.068c1.3967-1.397 1.6474-3.5719 0.605-5.25z"/>
  <path d="m12.422 9.9298c0.91032-0.94253-0.47147-2.3243-1.414-1.414l-1.47 1.47-0.293-0.293c-0.29282-0.29245-0.76718-0.29245-1.06 0l-1.775 1.775c-1.3967 1.397-1.6474 3.5719-0.605 5.25l-1.797 1.798c-0.97586 0.94252 0.47148 2.3899 1.414 1.414l1.798-1.797c1.6781 1.0424 3.853 0.79175 5.25-0.605l1.775-1.775c0.29245-0.29282 0.29245-0.76718 0-1.06l-0.293-0.293 1.47-1.47c0.91032-0.94253-0.47147-2.3243-1.414-1.414l-1.47 1.47-1.586-1.586z"/>
 </g>
</svg>
