<?xml version="1.0" encoding="UTF-8"?>
<svg width="256" height="256" version="1.1" xmlns="http://www.w3.org/2000/svg">
 <path d="m41.051 28.205c4.1209 4.371 6.0442 12.116 11.651 14.206 0 0 42.174 8.1147 44.502 8.3613 6.4814 0.68662 18.84 4.2198 19.576 21.133v112.2c-0.71394 16.398-12.363 20.215-18.977 21.056-2.6546 0.33762-43.71 6.0549-43.71 6.0549-8.3308 1.6375-10.912 10.691-15.558 16.579h178.93c-4.6461-5.8886-7.2272-14.942-15.558-16.579 0 0-41.055-5.7172-43.71-6.0549-6.6139-0.84119-18.263-4.6584-18.977-21.056v-112.2c0.73603-16.913 13.094-20.446 19.576-21.133 2.3285-0.24668 44.502-8.3613 44.502-8.3613 5.6064-2.0895 7.5297-9.8349 11.651-14.206h-86.949z" stroke="#000" stroke-width="3.7606"/>
</svg>
