<?xml version="1.0" encoding="UTF-8"?>
<svg width="256" height="256" version="1.1" xmlns="http://www.w3.org/2000/svg">
 <defs>
  <radialGradient id="radialGradient2" cx="341.4" cy="138.37" r="100.7" gradientTransform="matrix(1,0,0,1.0829,-212.3,-22.954)" gradientUnits="userSpaceOnUse">
   <stop stop-color="#008c73" offset=".67671"/>
   <stop stop-color="#009e82" offset="1"/>
  </radialGradient>
  <radialGradient id="radialGradient4" cx="127.53" cy="126.81" r="96.599" gradientTransform="matrix(1,0,0,1.1086,0,-13.77)" gradientUnits="userSpaceOnUse">
   <stop stop-color="#008c73" offset=".68143"/>
   <stop stop-color="#009e82" offset="1"/>
  </radialGradient>
  <radialGradient id="radialGradient7" cx="149.92" cy="153.11" r="93.343" gradientTransform="matrix(1,0,0,1.0893,0,-11.972)" gradientUnits="userSpaceOnUse">
   <stop stop-color="#00bc9a" offset=".4543"/>
   <stop stop-color="#00caaf" offset="1"/>
  </radialGradient>
  <radialGradient id="radialGradient9" cx="149.92" cy="153.11" r="93.343" gradientTransform="matrix(1,0,0,1.0893,0,-11.972)" gradientUnits="userSpaceOnUse">
   <stop stop-color="#00bc9a" offset=".45429"/>
   <stop stop-color="#00caaf" offset="1"/>
  </radialGradient>
 </defs>
 <g transform="matrix(.85743 0 0 .85743 17.8 19.864)">
  <g stroke-width="3.761">
   <path d="m33.444 19.718c1.6059 1.7034 6.0671 8.5661 10.257 13.168 6.5617 7.2064 13.635 12.752 17.057 14.027 0 0 26.51-4.8741 28.839-4.6275 6.4814 0.68662 18.84 4.2198 19.576 21.133v112.2c-0.71394 16.398-12.363 20.215-18.977 21.056-2.6546 0.33762-43.71 6.0549-43.71 6.0549-8.3308 1.6375-10.912 10.691-15.558 16.579l15.027 14.456 74.437-14.456c31.802-0.45031 91.765-0.36087 96.757-0.81118-4.6461-5.8886-11.759-17.312-24.952-18.409 0 0-38.955-4.9669-41.609-5.3045-6.6139-0.84119-18.263-2.7677-18.977-19.165v-112.2c0.73603-16.913 13.094-20.446 19.576-21.133 2.3285-0.24668 44.502-8.3613 44.502-8.3613 3.8875-1.4489 28.435-3.0107 28.435-3.0107l-16.785-11.195h-86.949z" fill="#008c73" stroke="#008c73"/>
   <path d="m109.85 27.017c1.6059 1.7034-4.1899-4.6016 0 0 6.5617 7.2064-24.242 18.62-20.82 19.895 0 0 26.51-4.8741 28.839-4.6275 6.4814 0.68662-9.4286 4.2198-8.6926 21.133v112.2c-0.71394 16.398-12.363 20.215-18.977 21.056-2.6546 0.33761-43.71 6.0549-43.71 6.0549-8.3308 1.6375-10.912 10.691-15.558 16.579l15.039 14.444 74.425-14.444c31.802-0.45031 91.765-0.36087 96.757-0.81118-4.6461-5.8886-11.759-17.312-24.952-18.409 0 0-38.955-4.9669-41.609-5.3045-6.6139-0.8412-18.263-2.7678-18.977-19.166v-112.2c0.73603-16.913 13.094-20.446 19.576-21.133 2.3285-0.24668 44.502-8.3613 44.502-8.3613 3.8875-1.4489 28.435-3.0107 28.435-3.0107l-16.785-11.195h-86.949z" fill="url(#radialGradient2)" stroke="url(#radialGradient4)"/>
   <path d="m51.748 34.317c-10.787-10.66-16.549-14.599-16.549-14.599l172.14-1e-6 16.785 11.195-172.38 3.4036" fill="#009e82" stroke="#009e82"/>
  </g>
  <path d="m51.748 34.317c4.1209 4.371 6.0441 12.116 11.651 14.206 0 0 42.174 8.1147 44.502 8.3613 6.4814 0.68662 18.84 4.2198 19.576 21.133v112.2c-0.71394 16.398-12.363 20.215-18.977 21.056-2.6546 0.33762-43.71 6.0549-43.71 6.0549-8.3308 1.6375-10.912 10.691-15.558 16.579h178.93c-4.6461-5.8886-7.2272-14.942-15.558-16.579 0 0-41.055-5.7172-43.71-6.0549-6.6139-0.84119-18.263-4.6584-18.977-21.056v-112.2c0.73603-16.913 13.094-20.446 19.576-21.133 2.3285-0.24668 44.502-8.3613 44.502-8.3613 5.6064-2.0895 7.5297-9.8349 11.651-14.206h-86.949z" fill="url(#radialGradient7)" stroke="url(#radialGradient9)" stroke-width="3.7606"/>
 </g>
</svg>
